<svg id="svg" version="1.1" width="500" height="500" xmlns="http://www.w3.org/2000/svg" xmlns:xlink="http://www.w3.org/1999/xlink" style="display: block;"><g id="svgg"><path id="path0" d="M34.412 17.400 C 34.421 19.001,34.619 19.293,35.138 18.473 C 35.531 17.852,35.667 16.862,35.440 16.273 C 34.791 14.581,34.399 15.011,34.412 17.400 M21.873 24.200 C 19.246 26.997,17.970 29.600,19.225 29.600 C 19.651 29.600,20.000 29.305,20.000 28.944 C 20.000 28.583,21.288 26.783,22.862 24.944 C 26.227 21.014,25.428 20.413,21.873 24.200 M374.800 22.400 C 375.072 22.840,374.720 23.200,374.019 23.200 C 373.009 23.200,373.124 23.590,374.572 25.073 C 376.089 26.628,376.479 26.738,376.864 25.720 C 377.214 24.796,377.700 25.122,378.837 27.047 C 380.450 29.778,381.871 30.515,381.059 28.200 C 380.465 26.504,375.960 21.600,374.996 21.600 C 374.616 21.600,374.528 21.960,374.800 22.400 M24.119 24.483 C 22.375 26.456,23.877 26.879,25.800 24.956 C 27.070 23.685,27.230 23.208,26.378 23.230 C 25.730 23.247,24.714 23.811,24.119 24.483 M16.137 32.878 C 14.620 35.307,15.533 35.633,17.110 33.225 C 17.840 32.111,18.155 31.200,17.811 31.200 C 17.467 31.200,16.713 31.955,16.137 32.878 M382.890 33.225 C 383.620 34.339,384.373 35.094,384.564 34.903 C 385.038 34.428,382.968 31.200,382.189 31.200 C 381.845 31.200,382.160 32.111,382.890 33.225 M16.000 199.600 C 15.780 288.040,15.690 360.550,15.800 360.733 C 16.678 362.197,16.781 341.629,16.602 199.531 L 16.400 38.800 16.000 199.600 M383.395 199.335 C 383.288 287.629,382.950 360.529,382.645 361.335 C 382.154 362.630,382.224 362.660,383.245 361.600 C 384.247 360.559,384.346 339.060,383.995 199.600 L 383.590 38.800 383.395 199.335 M13.004 202.800 C 12.796 371.987,12.792 371.828,17.671 374.844 C 18.126 375.125,18.841 376.255,19.259 377.355 C 19.677 378.455,20.735 379.542,21.610 379.771 C 22.484 379.999,23.200 380.622,23.200 381.154 C 23.200 382.554,26.668 385.600,28.262 385.600 C 29.010 385.600,30.247 385.934,31.011 386.342 C 37.305 389.705,31.846 389.600,200.000 389.600 C 368.154 389.600,362.695 389.705,368.989 386.342 C 369.753 385.934,371.040 385.600,371.850 385.600 C 373.411 385.600,376.800 382.480,376.800 381.042 C 376.800 380.571,377.516 379.999,378.390 379.771 C 379.265 379.542,380.323 378.455,380.741 377.355 C 381.159 376.255,381.861 375.133,382.300 374.862 C 387.289 371.779,387.286 371.862,387.030 202.000 L 386.796 46.800 386.598 203.277 C 386.387 370.364,386.465 367.041,382.817 364.014 C 382.058 363.384,381.657 363.498,381.293 364.445 C 380.592 366.274,380.656 366.405,382.000 365.889 C 383.462 365.328,383.511 365.884,382.200 368.152 C 380.602 370.917,376.800 374.738,376.800 373.579 C 376.800 372.922,376.039 373.236,374.791 374.408 C 373.668 375.464,373.132 376.511,373.574 376.784 C 374.409 377.300,373.370 378.368,369.077 381.411 C 366.122 383.505,365.251 383.664,365.893 381.990 C 366.382 380.716,363.626 380.989,360.653 382.511 C 358.891 383.412,41.109 383.412,39.347 382.511 C 36.374 380.989,33.618 380.716,34.107 381.990 C 34.749 383.664,33.878 383.505,30.923 381.411 C 26.630 378.368,25.591 377.300,26.426 376.784 C 26.868 376.511,26.332 375.464,25.209 374.408 C 23.961 373.236,23.200 372.922,23.200 373.579 C 23.200 374.738,19.398 370.917,17.800 368.152 C 16.432 365.785,16.537 365.409,18.400 366.000 C 19.318 366.291,20.000 366.144,20.000 365.654 C 20.000 365.184,19.640 364.800,19.200 364.800 C 18.760 364.800,18.377 363.990,18.349 363.000 L 18.299 361.200 17.575 363.000 C 16.620 365.375,16.304 365.282,14.840 362.196 C 13.741 359.881,13.581 342.277,13.400 203.196 L 13.196 46.800 13.004 202.800 M39.200 383.886 C 39.200 384.925,360.321 384.475,361.423 383.434 C 361.986 382.903,363.000 382.680,363.677 382.940 C 365.286 383.558,364.334 384.299,360.400 385.493 C 355.550 386.966,40.599 386.441,37.227 384.954 C 35.436 384.165,35.124 383.741,35.955 383.228 C 37.081 382.532,39.200 382.961,39.200 383.886 " stroke="none" fill="#000000" fill-rule="evenodd"></path><path id="path1" d="M107.400 114.130 C 106.609 114.449,106.400 132.865,106.400 202.451 L 106.400 290.370 108.200 290.808 C 109.190 291.050,121.700 291.147,136.000 291.024 L 162.000 290.800 162.204 202.849 C 162.365 133.017,162.200 114.768,161.404 114.262 C 160.328 113.579,109.075 113.454,107.400 114.130 M187.400 114.140 C 185.791 114.773,185.949 290.056,187.559 290.674 C 189.393 291.377,241.089 291.269,242.188 290.559 C 242.926 290.082,243.229 283.979,243.388 266.360 L 243.600 242.800 267.600 242.400 L 291.600 242.000 291.600 214.400 L 291.600 186.800 267.600 186.400 L 243.600 186.000 243.600 178.400 L 243.600 170.800 279.600 170.400 L 315.600 170.000 315.810 142.296 L 316.021 114.592 314.210 114.102 C 312.078 113.526,188.868 113.562,187.400 114.140 " stroke="none" fill="#ffffff" fill-rule="evenodd"></path><path id="path2" d="M18.822 32.035 C 19.106 32.494,18.857 33.463,18.269 34.189 C 17.515 35.118,17.494 35.331,18.196 34.909 C 20.047 33.797,21.017 31.200,19.581 31.200 C 18.879 31.200,18.538 31.576,18.822 32.035 M14.860 38.303 C 14.644 38.652,14.782 39.986,15.165 41.269 L 15.862 43.600 15.931 41.353 C 15.970 40.072,16.344 39.318,16.800 39.600 C 17.240 39.872,17.600 39.752,17.600 39.333 C 17.600 38.330,15.363 37.490,14.860 38.303 M382.724 39.324 C 382.370 39.896,382.504 40.030,383.076 39.676 C 383.773 39.246,384.048 78.178,384.197 198.153 L 384.394 357.200 384.800 198.400 C 385.023 111.060,385.295 40.110,385.403 40.733 C 385.511 41.357,385.788 41.678,386.019 41.448 C 386.249 41.217,386.211 40.437,385.933 39.715 C 385.350 38.195,383.556 37.976,382.724 39.324 M15.592 201.200 C 15.592 287.000,15.686 321.981,15.800 278.936 C 15.914 235.891,15.914 165.691,15.800 122.936 C 15.686 80.181,15.592 115.400,15.592 201.200 M13.796 202.902 C 13.591 366.314,13.615 367.604,16.788 364.305 C 18.188 362.850,18.062 360.390,16.600 360.635 C 15.830 360.764,15.112 360.764,15.005 360.635 C 14.898 360.506,14.626 289.840,14.401 203.600 L 13.992 46.800 13.796 202.902 M385.992 202.000 C 385.992 286.920,386.086 321.541,386.200 278.936 C 386.314 236.331,386.314 166.851,386.200 124.536 C 386.086 82.221,385.992 117.080,385.992 202.000 M385.348 358.600 C 385.030 359.810,384.392 360.800,383.931 360.800 C 383.435 360.800,383.312 361.537,383.629 362.600 C 384.157 364.371,384.145 364.374,382.908 362.800 C 382.217 361.920,381.639 361.606,381.625 362.102 C 381.611 362.598,382.123 363.438,382.762 363.968 C 384.046 365.034,386.717 360.104,386.191 357.637 C 386.035 356.906,385.690 357.301,385.348 358.600 M380.533 364.533 C 380.240 364.827,380.000 365.742,380.000 366.567 C 380.000 367.392,379.280 368.840,378.400 369.784 C 377.520 370.729,376.800 372.207,376.800 373.070 C 376.800 374.430,377.091 374.323,379.000 372.260 C 382.526 368.449,383.960 365.600,382.353 365.600 C 381.887 365.600,381.762 366.016,382.076 366.524 C 382.441 367.114,382.295 367.229,381.669 366.843 C 381.131 366.510,380.884 365.735,381.120 365.119 C 381.586 363.905,381.374 363.693,380.533 364.533 M16.800 366.011 C 16.800 366.871,18.886 369.975,21.000 372.260 C 22.909 374.323,23.200 374.430,23.200 373.070 C 23.200 372.207,22.480 370.729,21.600 369.784 C 20.720 368.840,20.000 367.730,20.000 367.319 C 20.000 366.908,19.431 366.353,18.735 366.086 C 17.190 365.493,16.800 365.478,16.800 366.011 M25.550 374.600 C 26.896 376.135,27.135 376.801,26.339 376.802 C 25.713 376.803,26.460 377.882,28.000 379.200 C 29.540 380.518,31.250 381.597,31.800 381.598 C 32.350 381.599,32.800 381.960,32.800 382.400 C 32.800 382.840,33.199 383.200,33.686 383.200 C 34.173 383.200,34.349 382.620,34.077 381.911 C 33.723 380.989,33.926 380.754,34.791 381.086 C 37.267 382.036,35.891 380.825,33.000 379.510 C 31.350 378.760,28.565 376.853,26.811 375.273 C 24.788 373.450,24.327 373.204,25.550 374.600 M368.170 378.781 C 364.482 380.730,362.778 382.019,365.033 381.153 C 366.080 380.752,366.297 380.936,365.923 381.911 C 365.651 382.620,365.827 383.200,366.314 383.200 C 366.801 383.200,367.200 382.840,367.200 382.400 C 367.200 381.960,367.650 381.599,368.200 381.598 C 368.750 381.597,370.460 380.518,372.000 379.200 C 375.485 376.217,373.445 375.994,368.170 378.781 M35.950 383.231 C 35.056 383.783,35.119 384.019,36.276 384.463 C 37.063 384.765,38.068 384.652,38.508 384.212 C 39.580 383.140,37.431 382.316,35.950 383.231 M361.550 383.231 C 360.656 383.783,360.719 384.019,361.876 384.463 C 362.663 384.765,363.668 384.652,364.108 384.212 C 365.180 383.140,363.031 382.316,361.550 383.231 M42.000 384.725 C 32.846 386.151,54.882 386.375,200.400 386.333 C 345.673 386.291,369.126 386.022,356.766 384.538 C 351.226 383.873,46.309 384.054,42.000 384.725 " stroke="none" fill="#003b4e" fill-rule="evenodd"></path><path id="path3" d="M379.660 30.304 C 379.026 31.328,382.115 34.947,382.930 34.135 C 383.297 33.769,382.974 33.013,382.211 32.455 C 381.449 31.898,381.023 31.243,381.266 31.001 C 381.508 30.759,381.347 30.338,380.909 30.067 C 380.470 29.796,379.908 29.902,379.660 30.304 M381.802 36.549 C 382.573 37.418,382.944 38.390,382.626 38.707 C 382.309 39.025,382.668 39.047,383.424 38.757 C 384.181 38.466,384.800 37.667,384.800 36.981 C 384.800 36.295,384.573 35.961,384.295 36.239 C 384.017 36.516,383.027 36.344,382.095 35.855 C 380.456 34.997,380.447 35.020,381.802 36.549 M15.383 36.949 C 15.782 38.145,17.600 38.804,17.600 37.752 C 17.600 37.323,17.030 36.752,16.333 36.485 C 15.554 36.186,15.188 36.365,15.383 36.949 M14.355 41.200 C 14.160 42.080,14.184 114.080,14.408 201.200 L 14.816 359.600 15.069 202.800 C 15.208 116.560,15.416 45.460,15.530 44.800 C 15.896 42.677,14.784 39.267,14.355 41.200 M384.808 199.622 C 384.795 287.545,384.966 359.301,385.186 359.081 C 385.717 358.550,385.773 40.706,385.242 40.175 C 385.015 39.949,384.820 111.700,384.808 199.622 M121.000 383.000 C 164.450 383.114,235.550 383.114,279.000 383.000 C 322.450 382.886,286.900 382.792,200.000 382.792 C 113.100 382.792,77.550 382.886,121.000 383.000 " stroke="none" fill="#006080" fill-rule="evenodd"></path><path id="path4" d="M29.440 19.937 C 28.716 20.782,27.690 22.284,27.160 23.275 L 26.195 25.077 28.454 23.300 C 29.697 22.323,30.821 20.821,30.952 19.962 C 31.248 18.020,31.083 18.017,29.440 19.937 M368.467 19.092 C 368.158 19.591,368.287 20.000,368.753 20.000 C 369.219 20.000,369.600 20.453,369.600 21.008 C 369.600 21.562,370.320 22.465,371.200 23.014 C 372.918 24.087,373.082 23.717,372.000 21.200 C 371.531 20.108,371.286 19.981,371.228 20.800 C 371.173 21.572,370.766 21.320,370.086 20.092 C 369.403 18.860,368.829 18.506,368.467 19.092 M377.724 29.150 C 377.876 29.884,378.360 30.465,378.800 30.442 C 379.987 30.380,379.769 28.590,378.524 28.175 C 377.851 27.950,377.551 28.316,377.724 29.150 M382.586 42.400 C 382.586 43.940,382.750 44.570,382.951 43.800 C 383.153 43.030,383.153 41.770,382.951 41.000 C 382.750 40.230,382.586 40.860,382.586 42.400 M373.217 373.899 C 368.503 378.730,369.064 378.806,374.266 374.042 C 376.417 372.071,379.180 368.485,378.228 368.899 C 378.103 368.954,375.848 371.204,373.217 373.899 M26.707 374.740 C 28.855 376.782,30.832 378.234,31.100 377.967 C 31.368 377.699,30.938 377.117,30.145 376.673 C 29.352 376.230,27.375 374.778,25.752 373.447 C 24.128 372.115,24.558 372.697,26.707 374.740 " stroke="none" fill="#0080aa" fill-rule="evenodd"></path><path id="path5" d="M39.600 17.792 C 38.280 18.247,36.660 18.804,36.000 19.030 C 35.340 19.256,34.375 19.532,33.855 19.642 C 30.012 20.457,18.863 32.591,19.774 34.966 C 19.993 35.535,19.810 36.000,19.370 36.000 C 17.134 36.000,15.483 343.561,17.650 356.400 C 18.743 362.879,22.465 370.419,26.086 373.491 C 30.863 377.544,31.631 378.049,36.000 380.018 L 40.400 382.000 200.000 382.000 L 359.600 382.000 364.303 379.912 C 372.960 376.070,379.798 368.273,381.684 360.092 C 382.051 358.502,382.372 285.609,382.398 198.110 L 382.445 39.020 379.942 33.882 C 377.599 29.072,374.669 25.413,370.638 22.262 C 368.271 20.411,365.600 19.037,365.600 19.670 C 365.600 19.959,365.139 19.813,364.575 19.345 C 364.011 18.878,362.481 18.208,361.175 17.856 C 357.477 16.862,42.484 16.799,39.600 17.792 M161.404 114.262 C 162.200 114.768,162.365 133.017,162.204 202.849 L 162.000 290.800 136.000 291.024 C 121.700 291.147,109.190 291.050,108.200 290.808 L 106.400 290.370 106.400 202.451 C 106.400 132.865,106.609 114.449,107.400 114.130 C 109.075 113.454,160.328 113.579,161.404 114.262 M314.210 114.102 L 316.021 114.592 315.810 142.296 L 315.600 170.000 279.600 170.400 L 243.600 170.800 243.600 178.400 L 243.600 186.000 267.600 186.400 L 291.600 186.800 291.600 214.400 L 291.600 242.000 267.600 242.400 L 243.600 242.800 243.388 266.360 C 243.229 283.979,242.926 290.082,242.188 290.559 C 241.089 291.269,189.393 291.377,187.559 290.674 C 185.949 290.056,185.791 114.773,187.400 114.140 C 188.868 113.562,312.078 113.526,314.210 114.102 " stroke="none" fill="#33ccff" fill-rule="evenodd"></path><path id="path6" d="M121.000 15.800 C 164.450 15.914,235.550 15.914,279.000 15.800 C 322.450 15.686,286.900 15.592,200.000 15.592 C 113.100 15.592,77.550 15.686,121.000 15.800 " stroke="none" fill="#00ffff" fill-rule="evenodd"></path><path id="path7" d="M121.800 15.000 C 164.810 15.114,235.190 15.114,278.200 15.000 C 321.210 14.886,286.020 14.792,200.000 14.792 C 113.980 14.792,78.790 14.886,121.800 15.000 M382.792 201.600 C 382.792 285.860,382.886 320.330,383.000 278.200 C 383.114 236.070,383.114 167.130,383.000 125.000 C 382.886 82.870,382.792 117.340,382.792 201.600 " stroke="none" fill="#0080ff" fill-rule="evenodd"></path><path id="path8" d="" stroke="none" fill="#000055" fill-rule="evenodd"></path><path id="path9" d="M40.000 14.800 C 40.000 15.460,40.529 16.000,41.175 16.000 C 41.891 16.000,42.170 15.531,41.889 14.800 C 41.636 14.140,41.107 13.600,40.714 13.600 C 40.321 13.600,40.000 14.140,40.000 14.800 M121.400 14.200 C 164.630 14.314,235.370 14.314,278.600 14.200 C 321.830 14.086,286.460 13.992,200.000 13.992 C 113.540 13.992,78.170 14.086,121.400 14.200 M358.111 14.800 C 357.830 15.531,358.109 16.000,358.825 16.000 C 359.471 16.000,360.000 15.460,360.000 14.800 C 360.000 14.140,359.679 13.600,359.286 13.600 C 358.893 13.600,358.364 14.140,358.111 14.800 " stroke="none" fill="#0000ff" fill-rule="evenodd"></path></g></svg>